<?xml version="1.0" standalone="no"?>
<!DOCTYPE svg PUBLIC "-//W3C//DTD SVG 1.1//EN" "http://www.w3.org/Graphics/SVG/1.1/DTD/svg11.dtd" >
<svg xmlns="http://www.w3.org/2000/svg">
<metadata>
Created by FontForge 20120731 at Thu Nov 17 15:36:00 2016
 By admin
</metadata>
<defs>
<font id="iconfont" horiz-adv-x="1024" >
  <font-face 
    font-family="iconfont"
    font-weight="500"
    font-stretch="normal"
    units-per-em="1024"
    panose-1="2 0 6 3 0 0 0 0 0 0"
    ascent="896"
    descent="-128"
    x-height="792"
    bbox="-0.5 -212 1579.1 896.1"
    underline-thickness="0"
    underline-position="0"
    unicode-range="U+0078-E849"
  />
<missing-glyph 
 />
    <glyph glyph-name=".notdef" 
 />
    <glyph glyph-name=".notdef" 
 />
    <glyph glyph-name=".null" horiz-adv-x="0" 
 />
    <glyph glyph-name="nonmarkingreturn" horiz-adv-x="341" 
 />
    <glyph glyph-name="glyph3" unicode="x" horiz-adv-x="1001" 
d="M281 543q-27 -1 -53 -1h-83q-18 0 -36.5 -6t-32.5 -18.5t-23 -32t-9 -45.5v-76h912v41q0 16 -0.5 30t-0.5 18q0 13 -5 29t-17 29.5t-31.5 22.5t-49.5 9h-133v-97h-438v97zM955 310v-52q0 -23 0.5 -52t0.5 -58t-10.5 -47.5t-26 -30t-33 -16t-31.5 -4.5q-14 -1 -29.5 -0.5
t-29.5 0.5h-32l-45 128h-439l-44 -128h-29h-34q-20 0 -45 1q-25 0 -41 9.5t-25.5 23t-13.5 29.5t-4 30v167h911zM163 247q-12 0 -21 -8.5t-9 -21.5t9 -21.5t21 -8.5q13 0 22 8.5t9 21.5t-9 21.5t-22 8.5zM316 123q-8 -26 -14 -48q-5 -19 -10.5 -37t-7.5 -25t-3 -15t1 -14.5
t9.5 -10.5t21.5 -4h37h67h81h80h64h36q23 0 34 12t2 38q-5 13 -9.5 30.5t-9.5 34.5q-5 19 -11 39h-368zM336 498v228q0 11 2.5 23t10 21.5t20.5 15.5t34 6h188q31 0 51.5 -14.5t20.5 -52.5v-227h-327z" />
    <glyph glyph-name="bianji" unicode="&#x3486;" horiz-adv-x="1000" 
d="M939.5 662q-11.5 12 -28.5 12t-28 -12l-396 -396q-12 -12 -12 -28.5t11.5 -28t28.5 -11.5t28 11l396 396q12 12 12 28.5t-11.5 28.5zM792.5 237q-16.5 0 -28 -11.5t-11.5 -27.5v-199q0 -16 -11.5 -27.5t-28.5 -11.5h-515q-16 0 -28 11.5t-12 27.5v635q0 16 12 27.5
t28 11.5h396q17 0 28.5 11.5t11.5 28t-11.5 28t-28.5 11.5h-436q-32 0 -55.5 -23t-23.5 -56v-713q0 -33 23.5 -56.5t55.5 -23.5h595q33 0 56 23.5t23 56.5v238q0 16 -11.5 27.5t-28 11.5z" />
    <glyph glyph-name="gouwuche" unicode="&#xe600;" 
d="M975 760q-8 1 -20.5 0t-39 -10.5t-46.5 -28.5q-51 -47 -51 -136q0 -50 0.5 -153t0.5 -183.5t0 -77.5q0 -45 -32 -77t-78 -32h-505q-45 0 -77 32t-32 77v249q0 45 32 77.5t77 32.5h461q16 0 27.5 11.5t11.5 27.5t-11.5 28t-27.5 12h-461q-78 0 -133 -55.5t-55 -133.5v-249
q0 -78 55 -133t133 -55h505q78 0 133.5 55t55.5 133v414q0 54 24 78q19 18 48 19v0q17 -1 29 9.5t13 27t-9.5 28.5t-27.5 13zM665 427h-416q-16 0 -28 -11.5t-12 -28t12 -28t28 -11.5h416q17 0 28.5 11.5t11.5 28t-11.5 28t-28.5 11.5zM665 245h-416q-16 0 -28 -11.5
t-12 -28t12 -28t28 -11.5h416q17 0 28.5 11.5t11.5 28t-11.5 28t-28.5 11.5zM857 -103zM800 -103q0 24 16.5 40.5t40.5 16.5t41 -16.5t17 -40.5t-17 -41t-41 -17t-40.5 17t-16.5 41zM69 -103zM12 -103q0 24 16.5 40.5t40.5 16.5t41 -16.5t17 -40.5t-17 -41t-41 -17t-40.5 17
t-16.5 41z" />
    <glyph glyph-name="liuyan" unicode="&#xe60a;" 
d="M801 405q-1 -13 -3 -25q-16 -112 -95 -184.5t-185 -72.5h-46l-8 -9q24 -44 65.5 -70.5t90.5 -26.5h46l90 -94q9 -9 22 -9q6 0 11 2q19 8 19 28v77q64 13 105 67t41 125q0 72 -44 126.5t-109 65.5zM755 386q3 22 3 40q0 107 -70.5 183t-169.5 76h-207q-100 0 -170.5 -76
t-70.5 -183q0 -96 56.5 -167.5t142.5 -87.5v-110q0 -24 22 -32q6 -3 13 -3q15 0 25 11l125 130h64q89 0 156 62t81 157zM244 506h337q7 0 12.5 -5t5.5 -12.5t-5.5 -13t-12.5 -5.5h-337q-7 0 -12 5.5t-5 13t5 12.5t12 5zM446 338h-202q-7 0 -12 5.5t-5 13t5 12.5t12 5h202
q8 0 13 -5t5 -12.5t-5 -13t-13 -5.5z" />
    <glyph glyph-name="vip" unicode="&#xe6e9;" 
d="M330 398l368 2l-177 -463zM372 566l280 -3l50 -112l-364 2zM292 457l-222 96l119 92l142 -76zM70 497l210 -97l226 -460zM751 401l196 106l-414 -564zM746 458l-55 118l126 74l110 -96zM368 623l-48 13l-90 52l106 40h345l105 -46l-101 -51l-34 -8h-283z" />
    <glyph glyph-name="wode" unicode="&#xe6f0;" 
d="M945 -140q0 -1 -0.5 -3.5t-4 -7.5t-8.5 -9t-16 -6.5t-25 -0.5q-7 1 -15 7.5t-12 13.5l-5 6q-22 139 -119.5 231.5t-226 92.5t-226 -92.5t-119.5 -231.5q-1 -3 -2.5 -7t-10 -11.5t-19.5 -8.5q-27 -2 -40 4.5t-14 14.5t0 8q4 125 77.5 226t189.5 147q-61 41 -96.5 106.5
t-35.5 141.5q0 123 87 210t210 87t209.5 -87t86.5 -210q0 -76 -35.5 -141.5t-96.5 -106.5q116 -46 189.5 -147t77.5 -226zM729 480.5q0 89.5 -63 153t-152.5 63.5t-152.5 -63.5t-63 -153t63 -152.5t152.5 -63t152.5 63t63 152.5z" />
    <glyph glyph-name="bianji1" unicode="&#xe77d;" 
d="M250 30l202 86l-124 122zM848 505l-127 131l-370 -365l133 -137zM953 662q-34 37 -73 66q-17 12 -34 12t-26 -6l-8 -6l-66 -66l134 -133q56 57 73 76q8 9 8 23t-4 24zM811 -38q0 -7 -5 -12t-12 -5h-622q-7 0 -12 5t-5 12v617q0 7 5 12t12 5h396l82 87h-563q-8 0 -14 -6
t-6 -14v-786q0 -8 6 -14t14 -6h792q8 0 14 6t6 14v562l-88 -82v-395z" />
    <glyph glyph-name="shezhi" unicode="&#xe638;" horiz-adv-x="1084" 
d="M1072 406q-4 25 -18.5 40t-33.5 15h-1h-4q-55 0 -94 39t-39 93q0 24 12 51q10 22 3 46t-27 38l-1 1l-135 75l-1 1q-14 5 -29 5q-33 0 -55 -22q-17 -18 -48 -38.5t-56 -20.5q-26 0 -57 21t-49 39q-21 23 -55 23q-15 0 -28 -6h-2l-139 -77l-1 -1q-20 -14 -27 -38t3 -46
q11 -26 11 -51q0 -54 -38.5 -93t-93.5 -39h-5h-1q-19 0 -33 -15t-19 -40q-11 -60 -11 -106.5t11 -106.5q5 -25 19 -40t33 -15h1h5q55 0 93.5 -38.5t38.5 -93.5q0 -24 -11 -51q-10 -22 -3 -46t26 -38l2 -1l132 -74l1 -1q14 -5 29 -5q34 0 55 23q19 21 50.5 41.5t56.5 20.5
q27 0 58.5 -21.5t49.5 -41.5q21 -24 55 -24v0q15 0 28 6h2l137 76l1 1q20 14 27 38t-3 46q-12 27 -12 51q0 55 39 93.5t94 38.5h4h1q19 0 33.5 15t18.5 40q12 60 12 107q0 46 -12 106zM378 -134l-116 65q16 39 16 75q0 82 -56 142t-137 66q-9 52 -9 85.5t9 85.5q81 6 137 66
t56 142q0 36 -16 75l123 68v0q20 -21 47 -40q60 -43 113 -43q52 0 112 42q26 19 46 39v0l118 -66q-15 -39 -15 -75q0 -82 55.5 -142t137.5 -66q8 -52 8 -85.5t-8 -85.5q-82 -6 -137.5 -66t-55.5 -142q0 -36 15 -75l-119 -66q-21 21 -47 41q-62 45 -116 45t-115 -44
q-26 -19 -46 -41zM731 300.5q0 79.5 -56 135.5t-135.5 56t-135.5 -56t-56 -135.5t56 -136t135.5 -56.5t135.5 56.5t56 136zM539.5 416q47.5 0 81.5 -34t34 -82t-34 -81.5t-81.5 -33.5t-81.5 33.5t-34 81.5t34 82t81.5 34z" />
    <glyph glyph-name="remen" unicode="&#xe645;" horiz-adv-x="1134" 
d="M563 -212q-181 0 -297 112.5t-116 285.5q0 35 8 74.5t18 68.5t22.5 59t18.5 41t9 17q11 19 32 17q22 -3 27 -24q20 -74 47 -116q25 -41 55 -61q-29 123 -7 238q13 70 43.5 127.5t61.5 89t68 55t52.5 30t25.5 9.5q17 5 30 -7.5t10 -29.5v0q-2 -10 -4 -23.5t-3.5 -52t1 -75
t13 -85t29.5 -89.5q8 -18 24 -44q5 36 13 66q7 25 19.5 46.5t23.5 33.5t24 22t18 13t8 5q18 8 33.5 -4t11.5 -32q0 -2 -0.5 -7.5t0.5 -20.5t4.5 -31t13 -40t24.5 -48q34 -57 46.5 -103.5t12.5 -118.5q0 -114 -54 -205t-150 -142t-216 -51v0zM250 344q-36 -90 -36 -158
q0 -145 98 -239.5t251 -94.5q155 0 255.5 94.5t100.5 239.5q0 63 -10 101t-40 88q-35 58 -47 117q-10 -18 -16 -38q-9 -31 -12.5 -69.5t-3 -56t0.5 -23.5q1 -11 -5 -20t-16 -13q-23 -8 -37 12q-58 81 -84 138q-60 129 -46 305q-23 -13 -44.5 -31t-45 -46.5t-42.5 -70
t-28 -91.5q-7 -38 -7 -80.5t4.5 -74t11 -61t10.5 -41.5t5 -16q7 -18 -5.5 -32.5t-31.5 -10.5q-5 1 -12.5 3.5t-26 11.5t-36.5 21t-39.5 33.5t-38.5 47.5q-14 22 -27 55v0zM250 344z" />
    <glyph glyph-name="yhq" unicode="&#xe635;" horiz-adv-x="1484" 
d="M0 529q0 43 14 63q14 18 63 18h202v-807h-87h-68q-43 1 -46 1q-43 -2 -60.5 14.5t-17.5 61.5v233q0 17 5.5 26t23.5 12q5 0 17 5q11 5 22 16t19 27q8 17 8 41q0 37 -20 58q-20 22 -42 25q-17 3 -25 10q-8 8 -8 25v171v0zM131 683v42q0 32 24.5 59.5t52.5 27.5h218v-129
h-295v0zM1416 332q-13 -3 -18 -14q-6 -11 -6 -23t6 -25q5 -12 18 -17t20 -19q7 -15 7 -31q1 -16 -3 -31q-5 -14 -15 -21q-31 -19 -31 -43q0 -25 31 -49q6 -4 12 -17q6 -14 6 -26q0 -14 -7 -23q-6 -10 -22 -10h-85q-9 0 -10 2q0 2 2.5 6t7.5 9q5 4 8 11q8 23 0 39t-27 27
q-13 7 -18 21q-5 13 -4 28q0 15 5 26t14 16q13 5 19 18q6 12 6 27q0 13 -4 27q-5 12 -15 17q-12 7 -19 19t-7 28.5t6 31.5q6 16 20 25q10 7 16 18q6 10 7 24q1 12 -4 25q-6 12 -20 20q-16 9 -23 24q-7 16 -7 31.5t7 30.5t20 23q27 15 29 39q2 26 -4 46q-5 17 -19 30
q-14 12 -36 12h-757v128h888q10 0 18 -8q9 -8 11 -20q2 -11 -2 -23t-15 -20q-10 -9 -16 -21q-7 -12 -8 -27q-1 -13 4 -27q4 -14 17 -21q17 -9 26 -26t9 -34t-9 -31.5t-24 -20.5q-18 -7 -26 -19q-7 -11 -8 -27q-1 -14 6 -28t23 -23q16 -10 23 -26q6 -16 6 -32q-1 -16 -8 -30
t-21 -16v0zM1211 357q-19 -5 -29 -19t-11 -28q-1 -15 8 -30q9 -14 26 -20q16 -7 23 -20q8 -13 9 -27.5t-5.5 -27.5t-18.5 -19q-40 -20 -41 -47q-2 -27 29 -44q15 -6 23 -20q9 -13 10 -29q1 -15 -6 -27q-6 -12 -20 -18q-19 -4 -30 -17q-9 -13 -10 -27q-1 -15 8 -30
q8 -14 27 -24q12 -6 18 -20t4 -27t-9 -23q-6 -11 -19 -11h-825v808h834q13 0 20 -10q7 -11 8 -24t-6 -26q-6 -13 -20 -17q-14 -5 -23 -17q-9 -10 -11 -25q-1 -13 7 -26t27 -19q14 -7 23 -20q9 -14 9 -26q1 -14 -6 -27q-7 -12 -23 -16v0zM831 248q-8 0 -17 2q-8 2 -4 10
q1 0 3 3t5.5 8t6.5 11q15 22 30 41q5 6 15.5 20t15.5 22q16 21 17 24q8 12 -9 30q-3 4 -13 10q-9 7 -17 10q-13 5 -18 1q-6 -3 -13 -14q-1 -1 -3.5 -4.5t-5.5 -8.5t-7 -10q-4 -6 -27 -40q-12 -18 -26 -38q-12 -17 -13 -20q-4 -7 -12 -5q-9 2 -12 8q-3 5 -14 19
q-14 16 -27 34q-9 13 -28 37q-12 15 -18 23q-14 28 -30 18q-10 -6 -20 -14q-8 -7 -16 -12q-16 -11 -5 -29q29 -35 48 -60q20 -26 33 -44q14 -19 18 -24q4 -6 -6 -6h-19q-9 0 -22 -1q-16 -1 -28 1q-13 0 -21 -7q-8 -6 -4 -16q1 -7 1 -19v-20q0 -8 5 -8q4 -1 11 -1h91
q19 0 19 -8v-31q0 -8 -3 -8h-106q-9 2 -12 -5q-3 -6 -4.5 -14.5t-0.5 -15.5q2 -6 2 -12q0 -21 20 -21h95q8 0 9 -2q2 -3 2 -11q2 -9 1 -29q-1 -25 -1 -27q0 -18 20 -18h51q13 0 13 8v65q0 16 14 16h14q13 0 24 1q19 1 26 1h21q22 0 22 16v35q0 15 -16 15h-91q-16 -4 -16 6
q0 6 -1 12t-1 14q0 7 6 9q5 4 12 4h93q15 0 15 11v39q0 6 -5 13q-5 6 -13 6h-54v0z" />
    <glyph glyph-name="home" unicode="&#xe604;" horiz-adv-x="1184" 
d="M1172 239l-546 546q-11 11 -28 11t-28 -11l-546 -546q-11 -12 -11 -28t11.5 -27.5t27.5 -11.5t28 12l125 125v-386q0 -56 39.5 -95.5t95.5 -39.5h516q56 0 95.5 39.5t39.5 95.5v386l126 -125q11 -12 27 -12t27.5 11.5t11.5 27.5t-11 28zM719 -134h-242v177h242v-177z
M913 -77q0 -23 -16.5 -40t-40.5 -17h-59v216q0 16 -11.5 27.5t-27.5 11.5h-320q-16 0 -27.5 -11.5t-11.5 -27.5v-216h-59q-23 0 -40 17t-17 40v464l315 315l315 -315v-464z" />
    <glyph glyph-name="iconfontsearch" unicode="&#xe603;" 
d="M954 -96l-153 163q96 116 96 265q0 113 -56 209t-151.5 151.5t-208.5 55.5t-209 -55.5t-151.5 -151.5t-55.5 -209t55.5 -208.5t151.5 -151.5t209 -56q90 0 172 37q12 6 16.5 18.5t-1 24.5t-18 16.5t-24.5 -0.5q-69 -32 -145 -32q-96 0 -177 47.5t-128 128.5t-47 176.5
t47 176.5t128 128t176.5 47t176.5 -47t128.5 -128t47.5 -177q0 -141 -98 -244q-9 -9 -9 -22.5t10 -22.5l1 -1t1.5 -1t1.5 -1.5t1 -2.5l166 -177q9 -10 23 -10q13 0 22 9q10 9 10.5 22t-8.5 23z" />
    <glyph glyph-name="shanchu" unicode="&#xe61b;" 
d="M878 584.5q-11 15.5 -29.5 25.5t-46.5 10h-43q-23 0 -43 1v64q0 26 -12.5 45t-45.5 19h-295q-24 0 -41 -19t-17 -45v-63h-84q-24 0 -42 -9t-29.5 -23t-17 -30.5t-5.5 -29.5q0 -27 1 -32q0 -4 1 -5h58v-527q0 -27 9 -48t24.5 -36t37 -23t46.5 -8h420q26 0 46.5 8.5
t34.5 23t21.5 33.5t7.5 39v538h62v6q0 3 0.5 7.5t0.5 11.5q0 15 -4 33t-15 33.5zM363 685h295v-65h-295v65zM364 14q0 -42 -30 -42q-16 0 -22 10t-6 32v475h58v-475zM539 14q0 -22 -5.5 -31.5t-21.5 -9.5q-31 0 -31 41v475h58v-475zM717 16q0 -22 -5.5 -31.5t-22.5 -9.5
q-31 0 -31 41v473h59v-473z" />
    <glyph glyph-name="gengduo" unicode="&#xe633;" 
d="M283 -191q-7 0 -12 5t-5 12.5t5 12.5l446 446l-446 447q-5 5 -5 12t5 12t12 5t12 -5l458 -459q5 -5 5 -12t-5 -12l-458 -459q-5 -5 -12 -5z" />
    <glyph glyph-name="lishijilu" unicode="&#xe611;" 
d="M828 616.5q-63 63.5 -145 97t-171.5 33.5t-171.5 -33.5t-145 -97t-97 -145t-34 -171.5q0 -133 72 -244q7 -11 20 -13.5t23.5 4.5t13.5 19.5t-4 23.5q-63 95 -63 210q0 104 51.5 193t140.5 140.5t193.5 51.5t193.5 -51.5t140.5 -140.5t51.5 -193.5t-51.5 -193t-140.5 -140
t-193 -51.5q-108 0 -200 55q-11 7 -23.5 3.5t-19 -14.5t-3.5 -23.5t14 -18.5q107 -65 232 -65q89 0 171 34t145 97.5t97 145t34 171.5t-34 171.5t-97 145zM494.5 606q-16.5 0 -28 -11.5t-11.5 -27.5v-284v-2v-2q2 -15 13 -24.5t27 -9.5v0v0h224q16 0 27.5 12t11.5 28
t-11.5 27.5t-27.5 11.5h-185v243q0 16 -11.5 27.5t-28 11.5z" />
    <glyph glyph-name="gouwuche1" unicode="&#xe688;" 
d="M244 -9q-30 0 -51 -21t-21 -51t21 -51t51 -21t51 21t21 51t-21 51t-51 21zM883 -9q-30 0 -51 -21t-21 -51t21 -51t51 -21t51 21t21 51t-21 51t-51 21zM388 218h371q13 0 22 9t9 21.5t-9 22t-22 9.5h-371q-13 0 -22 -9.5t-9 -22t9 -21.5t22 -9zM388 383h371q13 0 22 9
t9 21.5t-9 21.5t-22 9h-371q-13 0 -22 -9t-9 -21.5t9 -21.5t22 -9zM388 547h371q13 0 22 9.5t9 22t-9 21.5t-22 9h-371q-13 0 -22 -9t-9 -21.5t9 -22t22 -9.5zM192 630v-474q1 -4 1.5 -11t5.5 -25t12.5 -31.5t24.5 -24.5t39 -11h577q4 1 11 3.5t24.5 13t31.5 23t25 35
t11 48.5v340v114v10q0 13 -9 22t-22 9t-22 -9t-9 -22v-464q0 -2 -0.5 -6t-4 -15t-9.5 -19t-18.5 -14.5t-29.5 -6.5h-536q-1 0 -4 0.5t-10 3.5t-12.5 9t-10 18.5t-4.5 29.5v454q1 3 1 8t-1.5 19.5t-5 27t-12.5 26.5t-23 22q-17 10 -33 15t-23 6t-24.5 0t-22.5 -1h-4.5
t-9.5 -2.5t-12.5 -6t-10 -12t-4.5 -20.5q0 -7 4.5 -12t13.5 -6.5t15 -2t17 0t12 0.5q7 0 16 -2.5t20 -8t18 -19t7 -32.5z" />
    <glyph glyph-name="daifahuo" unicode="&#xe67f;" horiz-adv-x="1210" 
d="M321 48h-128q-11 0 -19 -7.5t-8 -19t8 -19t19 -7.5h128q11 0 19 7.5t8 19t-8 19t-19 7.5zM448 178h-255q-11 0 -19 -8t-8 -19t8 -19t19 -8h255q12 0 19.5 8t7.5 19t-7.5 19t-19.5 8zM1064 812h-205v0h-508v0h-205q-61 0 -103.5 -42.5t-42.5 -103.5v-732
q0 -61 42.5 -103.5t103.5 -42.5h918q61 0 103.5 42.5t42.5 103.5v732q0 61 -42.5 103.5t-103.5 42.5zM389 737h432v-290l-25 18q-22 15 -43 0l-63 -45l-63 44q-10 7 -22 7t-22 -7l-63 -44l-63 45q-21 15 -43 0l-25 -18v290zM1134 -66q0 -29 -20.5 -50t-49.5 -21h-918
q-29 0 -50 21t-21 50v732q0 29 21 50t50 21h167v-363q0 -23 20.5 -33.5t39.5 2.5l63 45l62 -45q22 -15 44 0l63 44l63 -44q22 -15 43 0l63 45l63 -45q10 -7 22 -7q9 0 18 5q20 10 20 33v363h167q29 0 49.5 -21t20.5 -50v-732z" />
    <glyph glyph-name="dingwei" unicode="&#xe647;" 
d="M512 714q62 0 116.5 -23t94.5 -64q41 -41 64.5 -95t23.5 -116q0 -84 -47 -181.5t-103 -180.5t-149 -193q-93 110 -149 193t-103 180.5t-47 181.5q0 63 23.5 116.5t64.5 94.5q40 40 94.5 63.5t116.5 23.5zM512 309.5q22 0.5 41.5 8.5t33.5 22q15 15 23.5 35t8.5 41.5
t-8.5 41t-23.5 34.5q-14 14 -33.5 22.5t-41.5 8.5t-41.5 -8.5t-33.5 -23.5q-15 -14 -23.5 -33t-8.5 -41.5t8.5 -41.5t23.5 -35q14 -14 33.5 -22.5t41.5 -8z" />
    <glyph glyph-name="shanchu1" unicode="&#xe65d;" 
d="M913 496h-85v-488q0 -58 -39.5 -99.5t-95.5 -41.5h-371q-56 0 -95.5 41.5t-39.5 99.5v488h-78q-18 0 -31.5 13.5t-13.5 33t13.5 33.5t31.5 14h216q1 53 35.5 99t82.5 46h129q47 0 82 -46t36 -99h223q18 0 31.5 -14t13.5 -33.5t-13.5 -33t-31.5 -13.5v0zM572 641h-129
q-7 0 -17 -17.5t-11 -33.5h185q-1 16 -11 33.5t-17 17.5v0zM738 496h-461v-488q0 -19 13 -33t32 -14h371q19 0 32 14t13 33v488v0zM586 67q-18 0 -31 14t-13 33v234q0 20 13 33.5t31.5 13.5t31.5 -13.5t13 -33.5v-234q0 -19 -13 -33t-32 -14v0zM418 67q-19 0 -32 14t-13 33
v234q0 20 13 33.5t31.5 13.5t32 -13.5t13.5 -33.5v-234q0 -19 -13.5 -33t-31.5 -14v0zM418 67z" />
    <glyph glyph-name="weibiaoti1" unicode="&#xe6c1;" 
d="M702 391h-138l150 164q6 7 6 16t-6 15l-17 16q-6 6 -14 6t-14 -6l-159 -175l-153 175q-5 6 -13.5 6t-14.5 -6l-22 -21q-6 -7 -6 -16t6 -15l149 -159h-133q-9 0 -15.5 -6.5t-6.5 -15.5v-16q0 -9 6.5 -15.5t15.5 -6.5h160v-120h-160q-9 0 -15.5 -6.5t-6.5 -15.5v-17
q0 -9 6.5 -15.5t15.5 -6.5h160v-161q0 -9 6 -15.5t16 -6.5h12q9 0 15 6.5t6 15.5v161h164q9 0 15.5 6.5t6.5 15.5v17q0 9 -6.5 15.5t-15.5 6.5h-164v120h164q9 0 15.5 6.5t6.5 15.5v16q0 9 -6.5 15.5t-15.5 6.5zM980 409q1 -10 17 1q25 17 25 49v263q0 37 -25.5 62.5
t-62.5 25.5h-845q-37 0 -62.5 -25.5t-25.5 -62.5v-263q0 -35 28 -50q14 -7 14 0q23 -6 38 -14.5t23 -18t12 -24t5 -25t1 -28.5q0 -17 -0.5 -28.5t-5 -30.5t-12 -29.5t-23 -17.5t-38.5 -4q-1 -6 -12 -8t-20.5 -10.5t-9.5 -30.5v-264q0 -36 25.5 -62t62.5 -26h845
q37 0 62.5 26t25.5 62v264q0 18 -10.5 31.5t-21.5 17.5t-10 0q-17 0 -29.5 4.5t-20.5 10t-13.5 16.5t-8 18t-4 21.5t-1.5 20v19.5q0 19 0.5 29t4.5 25.5t11.5 24t22.5 17.5t38 14zM963 111v-217q0 -19 -13 -31.5t-31 -12.5h-813q-18 0 -31 12.5t-13 31.5v217q36 13 62 37.5
t38 53.5t17 52.5t5 44.5q0 145 -122 188v219q0 19 13 31.5t31 12.5h813q18 0 31 -12.5t13 -31.5v-219q-120 -42 -120 -188t120 -188z" />
    <glyph glyph-name="fenlei" unicode="&#xe665;" 
d="M903 330h-259q-43 0 -73 30t-30 73v275q0 43 30 73.5t73 30.5h259q42 0 72.5 -30.5t30.5 -73.5v-275q0 -43 -30.5 -73t-72.5 -30zM644 750q-17 0 -29 -12t-12 -30v-275q0 -17 12 -29t29 -12h259q17 0 29 12t12 29v275q0 18 -12 30t-29 12h-259zM372 330h-258
q-43 0 -73.5 30t-30.5 73v275q0 43 30.5 73.5t73.5 30.5h258q43 0 73.5 -30.5t30.5 -73.5v-275q0 -43 -30.5 -73t-73.5 -30zM114 750q-17 0 -29.5 -12t-12.5 -30v-275q0 -17 12.5 -29t29.5 -12h258q17 0 29.5 12t12.5 29v275q0 18 -12.5 30t-29.5 12h-258zM372 -211h-258
q-43 0 -73.5 30.5t-30.5 73.5v275q0 43 30.5 73.5t73.5 30.5h258q43 0 73.5 -30.5t30.5 -73.5v-275q0 -43 -30.5 -73.5t-73.5 -30.5zM114 210q-17 0 -29.5 -12.5t-12.5 -29.5v-275q0 -17 12.5 -29t29.5 -12h258q17 0 29.5 12t12.5 29v275q0 17 -12.5 29.5t-29.5 12.5h-258z
M784 -190q-96 0 -164.5 68t-68.5 164t68.5 164t164.5 68t164 -68t68 -164t-68 -164t-164 -68zM783.5 212q-70.5 0 -120 -49.5t-49.5 -120t49.5 -120.5t120 -50t120 50t49.5 120.5t-49.5 120t-120 49.5z" />
    <glyph glyph-name="jiantouxiangxia" unicode="&#xe612;" 
d="M867 529q8 -11 9 -23.5t-7 -18.5l-342 -267q-1 0 -5.5 -3.5t-5.5 -3.5q-9 -11 -21 -13.5t-20 3.5l-321 290q-8 7 -6.5 19t11 23t21.5 13.5t20 -4.5l292 -264l335 261q7 6 19 2.5t21 -14.5v0zM867 529z" />
    <glyph glyph-name="back" unicode="&#xe63c;" 
d="M312 246l353 -341q15 -13 34.5 -13t32.5 13q13 15 12.5 34t-15.5 33l-336 324l322 308q14 13 14 32.5t-14.5 32.5t-34 13t-32.5 -13l-353 -341q-15 -13 -15 -32t15 -32z" />
    <glyph glyph-name="back1" unicode="&#xe685;" 
d="M739 647l-346 -347l346 -347q13 -12 13 -30t-12.5 -30.5t-30 -12.5t-30.5 13l-377 377q-12 12 -12 30t12 30l377 377q13 13 30.5 13t30 -12.5t12.5 -30.5t-13 -30z" />
    <glyph glyph-name="chongzhi" unicode="&#xe67c;" 
d="M62 497v111q0 23 16.5 39t39.5 16h778q23 0 39.5 -16t16.5 -39v-111h-890v0zM62 441v-444q0 -23 16.5 -39.5t39.5 -16.5h632q-27 20 -43 50.5t-16 65.5q0 59 42 101t101 42q36 0 67 -17t51 -45v303h-890zM368 52h-222q-12 0 -20 8t-8 19.5t8 20t20 8.5h222q12 0 20 -8.5
t8 -20t-8 -19.5t-20 -8zM424 163h-278q-12 0 -20 8.5t-8 20t8 19.5t20 8h278q11 0 19 -8t8 -19.5t-8 -20t-19 -8.5zM590 163h-55q-12 0 -20 8.5t-8 20t8 19.5t20 8h55q12 0 20 -8t8 -19.5t-8 -20t-20 -8.5zM836 -67q-51 0 -86.5 36t-35.5 86.5t35.5 86t86 35.5t86.5 -35.5
t36 -86t-36 -86.5t-86 -36v0zM871 54v-12h-28v-15h28v-11h-28v-23h-14v23h-28v11h28v15h-28v12h24l-30 51h16q21 -38 25 -48h1q1 4 8 16l17 32h15l-30 -51h24v0zM836 155q-42 0 -71 -29t-29 -70.5t29 -71t70.5 -29.5t71 29.5t29.5 71t-29.5 70.5t-70.5 29v0z" />
    <glyph glyph-name="xiugaimima" unicode="&#xe649;" 
d="M822 376h-29v248q0 36 -30.5 62t-72.5 26h-357q-43 0 -73 -25.5t-30 -62.5v-248h-29q-21 0 -36 -13t-15 -31v-402q0 -19 15 -32t36 -13h621q21 0 36 13t15 32v402q0 18 -15 31t-36 13v0zM560 -9q0 -6 -5 -10.5t-12 -4.5h-64q-7 0 -12 4.5t-5 10.5l17 190q-34 20 -34 58
q0 28 19.5 47t47 19t47 -19t19.5 -47q0 -38 -34 -58l16 -190v0zM703 376h-383v220q0 19 15 31.5t37 12.5h279q22 0 37 -12.5t15 -31.5v-220v0zM703 376z" />
    <glyph glyph-name="weixinzhifu" unicode="&#xe62a;" 
d="M390 265q-17 -10 -30.5 -11.5t-20.5 3.5t-12 10.5t-6 11.5l-1 5l-77 178q-19 56 4 51q9 -2 22 -12q47 -36 83 -58q16 -9 35 -10.5t30 1.5l12 3l502 231q-71 88 -181.5 139t-237.5 51q-104 0 -199 -35.5t-163.5 -95.5t-109 -142.5t-40.5 -173.5q0 -104 52 -195.5
t142 -153.5l-21 -122q-1 -2 -1 -4t-0.5 -7.5t2 -8t8 -4t16.5 4.5q29 13 125 76q91 -32 189 -32q104 0 198.5 35.5t163.5 95t109.5 142.5t40.5 173q0 105 -54 199q-528 -316 -580 -345v0v0zM390 265z" />
    <glyph glyph-name="tuikuanshouhou" unicode="&#xe610;" 
d="M848 379q0 -6 4 -9.5t9.5 -3.5t9 3.5t3.5 9.5q0 110 -67 198t-173 117q-13 4 -16.5 -9t9.5 -16q98 -27 159.5 -108t61.5 -182zM547 680q9 0 17 -1h1q5 0 9 3.5t4 9t-3.5 9.5t-8.5 4q-10 1 -19 1q-5 0 -9 -4t-4 -9.5t4 -9t9 -3.5zM536 809q-115 0 -212.5 -56.5
t-154 -154.5t-56.5 -212q0 -26 3 -51l-31 -11q-15 -5 -18 -21q-3 -18 12 -30l89 -73q8 -7 18 -7q20 0 25 24l23 111q3 16 -7 28q-13 15 -31 8l-23 -8q-1 15 -1 30q0 98 48.5 182t133 133t183 49t182.5 -49t133 -133t49 -182.5t-49 -182.5t-133 -133t-183 -49q-136 0 -239 90
q-9 8 -21.5 7t-20.5 -10t-7 -21.5t10 -20.5q119 -104 278 -104q115 0 213 56.5t154.5 154.5t56.5 212.5t-56.5 212.5t-154.5 154.5t-213 56.5zM406 298q-12 0 -18 -5.5t-6 -19.5q0 -25 26 -25h100v-85q0 -17 5.5 -24t21.5 -7t21 7t5 24v85h102q26 0 26 25t-26 25h-102v41
h102q26 0 26 25t-26 25h-74l93 156q7 12 7 20.5t-10 15.5q-10 6 -20 6t-20 -16l-104 -176l-104 176q-9 15 -20.5 15t-19.5 -6t-8 -15.5t5 -19.5l93 -156h-75q-12 0 -18 -5.5t-6 -19.5q0 -25 26 -25h100v-41h-102z" />
    <glyph glyph-name="youhuiquan01" unicode="&#xe66e;" horiz-adv-x="1581" 
d="M0 794q0 54 18 79q18 23 81 23h256v-1024h-110q-48 0 -87 1q-55 1 -59 1q-55 -2 -77 18.5t-22 78.5v294q0 23 7 34t29 15q8 0 22 7q15 6 28 19q15 14 24 35q10 22 10 52q0 47 -24 74q-26 27 -54 30q-22 4 -32 14q-10 9 -10 32v217v0v0zM1544 333q16 8 24 24.5t7 34.5
q-1 19 -11 35t-30 25q-22 7 -33 26t-10 37q1 19 14 36t37 23q20 7 29 22q9 16 8 33q-1 16 -12 34q-11 16 -29 24q-24 8 -34 25q-10 16 -9 34q3 18 14 31q11 15 29 21t26 22q8 17 7 33q-1 17 -10 30t-25 13h-1062v-1024h1050q16 0 25 13t11 30q2 16 -5 34q-7 17 -23 25
q-24 13 -35 31q-12 18 -10 37q1 19 13 35q14 16 38 22q18 7 26 22t7 34q-1 20 -12 37q-11 18 -29 26q-40 21 -38 55q2 35 52 60zM1150 616q-2 -5 -21 -31q-8 -10 -21.5 -28.5t-18.5 -24.5q-20 -25 -38 -52q-5 -7 -19 -28q-6 -10 5 -13q11 -2 21 -2h68q11 0 17 -8q7 -8 7 -16
v-49q0 -15 -20 -15h-118q-8 0 -15 -4t-7 -12q0 -10 1 -17q1 -8 1 -16q0 -12 20 -8h117q20 0 20 -18v-46q0 -20 -29 -20h-26q-8 0 -33 -1q-14 -1 -31 -1h-18q-18 0 -18 -21v-67v-14q0 -11 -16 -11h-65q-26 0 -26 23q0 2 1 35q2 25 -1 36q0 10 -2 14q-1 3 -12 3h-120
q-26 0 -26 27q0 7 -2 15q-2 9 0 19q2 11 6 19t16 6h24h40h40h20h10q4 0 4 10v39q0 10 -24 10h-116q-8 0 -14 1t-6 11v25q0 16 -2 25q-4 12 6 20q9 8 26 8q16 -2 35 -1q16 1 29 1h24q13 0 8 8q-4 6 -24 31q-11 15 -42 56q-24 32 -60 75q-14 23 6 37q11 7 21 16q11 9 25 17
q20 12 38 -22q7 -10 23 -30q24 -31 35 -46q17 -24 35 -44q14 -18 18 -24q4 -8 15 -10t15 6q1 4 17 26q18 26 33 48q29 42 34 50q3 5 20 30q10 13 17 18q7 4 23 -2q11 -4 22 -12q13 -9 16 -13q23 -23 12 -38zM1058 437z" />
    <glyph glyph-name="zbgl4" unicode="&#xe634;" 
d="M0 6h1024v-36h-1024v36v0zM131 114l155 156q21 20 15 49l36 36q61 -46 139 -41t133 60q61 61 61 147.5t-61 147.5t-147.5 61t-147.5 -61q-55 -55 -60 -133t41 -139l-36 -36q-29 6 -49 -15l-156 -155q-15 -16 -15 -38.5t15.5 -38t38 -15.5t38.5 15v0zM356.5 627.5
q43.5 43.5 105.5 43.5t105.5 -43.5t43.5 -105.5t-43.5 -105.5t-105.5 -43.5t-105.5 43.5t-43.5 105.5t43.5 105.5zM870 798h79v-767h-79v767zM784 673h-79v-92q8 -32 8 -62.5t-8 -62.5v-426h79v643zM533 31h79v287q-36 -28 -79 -40v-247v0zM355 31h79v238q-21 2 -42 8h-37
v-246zM173 31h80v123h-19l-61 -61v-62z" />
    <glyph glyph-name="more" unicode="&#xe656;" 
d="M321 830l-64 -63l381 -384l-384 -380l63 -64l449 444z" />
    <glyph glyph-name="xintubiao03" unicode="&#xe613;" horiz-adv-x="1025" 
d="M1006 -128h-987q-8 0 -13 6t-5 15v14q0 9 5 15.5t13 6.5h987q7 0 12.5 -6.5t5.5 -15.5v-14q0 -9 -5.5 -15t-12.5 -6v0zM586 342v-317q0 -6 -3.5 -9.5t-9.5 -3.5h-44q-5 0 -9 3.5t-4 9.5v356v0q25 -37 70 -39v0zM358 12h-45q-5 0 -9 3.5t-4 9.5v791q0 6 4 9.5t9 3.5h45
q5 0 9 -3.5t4 -9.5v-791q0 -6 -4 -9.5t-9 -3.5v0zM142 12h-44q-6 0 -9.5 3.5t-3.5 9.5v858q0 5 3.5 9t9.5 4h44q5 0 9 -4t4 -9v-858q0 -6 -4 -9.5t-9 -3.5v0zM215 12zM693 377q-104 0 -177.5 73.5t-73.5 177t73.5 177t177 73.5t177 -73.5t73.5 -177t-73.5 -177t-176.5 -73.5
v0zM693 852q-93 0 -158.5 -66t-65.5 -158.5t65.5 -158t158 -65.5t158.5 65.5t66 158t-66 158.5t-158 66v0zM692.5 373q-105.5 0 -180 74.5t-74.5 180t74.5 180t180 74.5t180 -74.5t74.5 -179.5t-74.5 -180t-180 -75zM693 874q-102 0 -174.5 -72t-72.5 -174t72.5 -174.5
t174.5 -72.5t174 72.5t72 174.5t-72 174t-174 72zM692.5 400q-94.5 0 -161 66.5t-66.5 161t66.5 161.5t161.5 67v0q94 0 161 -67t67 -161.5t-67 -161t-161.5 -66.5zM693 848q-91 0 -155.5 -64.5t-64.5 -155.5t64.5 -155.5t155.5 -64.5t155.5 64.5t64.5 155.5t-64.5 155.5
t-155.5 64.5v0zM1007 290q-6 0 -10 4l-147 147q-9 10 0.5 19t18.5 0l147 -147q10 -10 0 -19q-4 -4 -9 -4v0zM1007 286q-7 0 -12 5l-148 147q-5 5 -5 12.5t5 12.5t12.5 5t12.5 -5l147 -147q5 -5 5 -12.5t-5 -12.5t-12 -5zM859.5 460q-3.5 0 -6.5 -3t-3 -6.5t3 -6.5l147 -147
q7 -7 13.5 -0.5t-0.5 13.5l-147 147q-3 3 -6.5 3z" />
    <glyph glyph-name="dengji" unicode="&#xe64c;" 
d="M920 755q-63 0 -127 14t-105.5 31.5t-81 40.5t-51.5 32t-19 15q-11 9 -24.5 8t-22.5 -12q-28 -36 -78.5 -62.5t-108 -39.5t-107 -19.5t-91.5 -6.5q-15 -2 -23 -9q-9 -9 -9 -23v-370q0 -47 26.5 -111t72.5 -128t101.5 -119t120 -89.5t122.5 -34.5q59 0 124.5 35
t119.5 90.5t98.5 118.5t69.5 124t25 102v380q0 14 -9.5 23.5t-22.5 9.5zM888 342q0 -33 -22.5 -84.5t-61.5 -106.5t-86 -103.5t-101.5 -79.5t-101.5 -31q-57 0 -126 47t-123.5 113t-92 138t-37.5 119v339q39 2 80.5 7.5t99 18t111.5 39t92 62.5q25 -18 55.5 -35.5
t78.5 -39.5t109.5 -36.5t125.5 -17.5v-349v0zM367 582q-6 12 -18.5 16t-24.5 -1.5t-16.5 -18t0.5 -24.5l175 -363q9 -18 29 -18v0q20 0 29 18l180 362q6 12 1.5 25t-16 18.5t-24.5 1.5t-19 -16l-151 -304z" />
    <glyph glyph-name="dizhiguanli" unicode="&#xe614;" horiz-adv-x="1108" 
d="M651 453q0 17 -12 29.5t-29 12.5q-18 0 -30 -12.5t-12 -29.5t12.5 -29.5t29.5 -12.5q17 1 29 13t12 29zM890 796h-560q-61 0 -104 -43t-43 -103v-560q0 -61 43 -104t104 -43h560q60 0 103 43t43 104v560q0 60 -43 103t-103 43zM565 656q60 14 118 -8.5t94 -73.5
q39 -55 40 -124q0 -41 -24 -90q-26 -53 -78 -116q-41 -50 -89 -95q-16 -15 -33 -1q-98 89 -152 180q-10 18 -18 34q-3 9 -0.5 17t10.5 11.5t16 0.5t12 -11q30 -65 98 -140q21 -23 47 -47q3 -3 6 0q96 97 140 178q19 34 22 62q7 50 -18 95q-47 88 -142 91q-55 2 -99.5 -30
t-62.5 -85q-9 -27 -9 -54q0 -10 -6 -16.5t-15 -6.5t-15 6.5t-6 16.5q1 74 47 131.5t117 74.5zM526 453q0 34 24.5 58.5t59.5 24.5q34 0 58 -24.5t24 -58.5q0 -35 -24.5 -59t-58.5 -24t-58.5 24.5t-24.5 58.5zM878 79h-280q-221 0 -255 -1q-15 0 -21.5 11t1.5 24l80 140
q9 16 24 12q11 -2 14.5 -11.5t-1.5 -19.5l-43 -76q-4 -7 -12 -20.5t-10 -16.5h468q0 1 -3 6q-41 71 -61 107q-7 12 0 22q7 11 19 10q11 -1 16 -10q62 -108 84 -146q6 -12 -0.5 -21.5t-19.5 -9.5z" />
    <glyph glyph-name="pingjia" unicode="&#xe7c4;" horiz-adv-x="1025" 
d="M995 -128q-12 0 -21 9l-146 147q-9 9 -9 21t8.5 20.5t20.5 8.5t21 -8l146 -148q9 -8 9 -20.5t-8.5 -21t-20.5 -8.5v0zM526 -71q-46 0 -86 36q-50 46 -139 129l-4 3l-60 12q-113 20 -140 25q-58 12 -84 62q-27 52 0 111q6 14 14 30.5t15.5 32.5t15.5 32.5t14.5 30.5
t11.5 24.5t8 17l3 6.5l2 5v7q-15 127 -22 190q-6 56 31 97t91 41h12q68 -7 193 -22h4l8 2l4 2q114 55 169 80q27 13 56 13q44 0 77.5 -28.5t42.5 -73.5q12 -62 34 -183l1 -4l16 -19l6 -7q83 -87 111 -118q45 -48 36 -105q-8 -57 -67 -90q-58 -34 -166 -93l-4 -2l-17 -28
l-1 -2q-55 -100 -82 -148q-38 -66 -104 -66v0v0zM324 155q12 -13 51.5 -50t69.5 -64.5t34 -30.5q23 -21 46 -21q33 0 54 37q38 66 105 190q117 63 187 104q34 19 38 48q5 29 -21 56q-48 52 -145 153q-11 76 -38 206q-5 26 -22 40.5t-40 14.5q-16 0 -32 -7q-69 -32 -194 -93
q-99 14 -214 25q-4 1 -6 1q-28 0 -47 -22q-21 -22 -17 -51q7 -71 25 -213q-47 -97 -92 -194q-15 -33 -2 -60q13 -25 44 -31q67 -13 216 -38v0zM324 155z" />
    <glyph glyph-name="xianxia" unicode="&#xe683;" 
d="M512 832q-122 0 -225 -60t-163 -163t-60 -225t60 -225t163 -163t225 -60t225 60t163 163t60 225t-60 225t-163 163t-225 60zM430 547q18 0 30.5 -13t12.5 -30.5t-12.5 -30.5t-30.5 -13t-31 13t-12.5 31t13 30.5t30.5 12.5zM767 462q-5 -16 -22 -16h-139q-4 0 -5 -2
q-1 -4 0 -7q6 -9 -1 -18q-1 -1 -3 -4q-33 -33 -50 -49q-14 -14 -27 0l-28 28l-2 2l-2 2v-5v-90q0 -6 -2 -13q-2 -8 -10 -12q-3 -1 -3 -5v-84q1 -15 -12 -19h-63q-12 4 -12 19v84q0 4 -3 5q-7 4 -9 11t-2 14v90v5l-4 -4l-28 -28q-14 -14 -28 0l-14.5 14.5t-17 17.5t-14.5 15
q-9 8 -10 16v0q0 1 0.5 3.5t1.5 3.5q3 8 11.5 9.5t15.5 -5.5q6 -6 12.5 -12t14 -14t11.5 -12q1 -1 4 -3l2 3l37 37q3 3 6 3q10 3 43 4q10 -82 14 -113h1q9 68 14 113q22 -1 38 -2q8 -1 14 -8l9.5 -9.5l7.5 -7.5l20 -20l0.5 0.5l0.5 0.5l37 37q5 4 7 6q1 1 4 2l3 1v0h-3h-40
q-10 0 -16 6.5t-6 15.5v108q0 12 9 18l9 4h211q15 -4 19 -18v-115q0 -1 -1 -3z" />
    <glyph glyph-name="x" unicode="&#xe61d;" 
d="M313 217q-6 -7 -6 -16t6 -15q7 -7 16 -7t15 7l363 362q6 6 6 15t-6 16q-7 6 -15.5 6t-16.5 -6zM680 190q6 -6 15.5 -6t15.5 6t6 15t-6 16l-362 362q-7 6 -16 6t-16 -6q-6 -7 -6 -16t6 -15z" />
    <glyph glyph-name="qianbaozhifumaijia" unicode="&#xe781;" 
d="M640 448h-352q-14 0 -32 6v-262q0 -27 18.5 -45.5t45.5 -18.5h320q27 0 45.5 18.5t18.5 45.5v192q0 27 -18.5 45.5t-45.5 18.5zM608 256h-64q-13 0 -22.5 9.5t-9.5 22.5t9.5 22.5t22.5 9.5h64q13 0 22.5 -9.5t9.5 -22.5t-9.5 -22.5t-22.5 -9.5zM480 832q-98 0 -186.5 -38
t-153 -102.5t-102.5 -153t-38 -186.5t38 -186.5t102.5 -153t153 -102.5t186.5 -38t186.5 38t153 102.5t102.5 153t38 186.5t-38 186.5t-102.5 153t-153 102.5t-186.5 38zM768 192q0 -53 -37.5 -90.5t-90.5 -37.5h-320q-53 0 -90.5 37.5t-37.5 90.5v352q0 7 2 12
q5 36 31.5 60t62.5 24h384q13 0 22.5 -9.5t9.5 -22.5t-9.5 -22.5t-22.5 -9.5h-384q-13 0 -22.5 -9.5t-9.5 -22.5t9.5 -22.5t22.5 -9.5h352q53 0 90.5 -37.5t37.5 -90.5v-192z" />
    <glyph glyph-name="shouye" unicode="&#xe626;" 
d="M1009 396l-17 -17q-9 -8 -17 0l-37 34v-339q0 -82 -59 -141t-141 -59h-71h-63h-156h-63h-47h-51v0q-84 -1 -143 57t-59 141v341l-34 -34q-4 -4 -9 -4t-8 4l-18 17q-8 9 0 17l481 481q5 4 14 0q9 4 17 0l481 -481q8 -8 0 -17zM411 -52q0 -6 1.5 -13.5t1.5 -11.5h219
q3 8 3 25v275q0 42 -29 71t-71 29h-25q-42 0 -71 -29t-29 -71v-275zM887 462l-376 375l-375 -375v-390q0 -62 44.5 -106.5t106.5 -44.5h51h27q-2 7 -2 24v278q0 62 44.5 106.5t106.5 44.5h24q62 0 106.5 -44.5t44.5 -106.5v-275q0 -17 -2 -25h54q62 0 106.5 44.5t44.5 106.5
v388h-5z" />
    <glyph glyph-name="liulanmoshi" unicode="&#xe849;" 
d="M320 320h-128q-53 0 -90.5 -37.5t-37.5 -90.5v-128q0 -53 37.5 -90.5t90.5 -37.5h128q53 0 90.5 37.5t37.5 90.5v128q0 53 -37.5 90.5t-90.5 37.5zM384 64q0 -27 -18.5 -45.5t-45.5 -18.5h-128q-27 0 -45.5 18.5t-18.5 45.5v128q0 27 18.5 45.5t45.5 18.5h128
q27 0 45.5 -18.5t18.5 -45.5v-128zM768 768h-128q-53 0 -90.5 -37.5t-37.5 -90.5v-128q0 -53 37.5 -90.5t90.5 -37.5h128q53 0 90.5 37.5t37.5 90.5v128q0 53 -37.5 90.5t-90.5 37.5zM832 512q0 -27 -18.5 -45.5t-45.5 -18.5h-128q-27 0 -45.5 18.5t-18.5 45.5v128
q0 27 18.5 45.5t45.5 18.5h128q27 0 45.5 -18.5t18.5 -45.5v-128zM320 768h-128q-53 0 -90.5 -37.5t-37.5 -90.5v-128q0 -53 37.5 -90.5t90.5 -37.5h128q53 0 90.5 37.5t37.5 90.5v128q0 53 -37.5 90.5t-90.5 37.5zM384 512q0 -27 -18.5 -45.5t-45.5 -18.5h-128
q-27 0 -45.5 18.5t-18.5 45.5v128q0 27 18.5 45.5t45.5 18.5h128q27 0 45.5 -18.5t18.5 -45.5v-128zM768 320h-128q-53 0 -90.5 -37.5t-37.5 -90.5v-128q0 -53 37.5 -90.5t90.5 -37.5h128q53 0 90.5 37.5t37.5 90.5v128q0 53 -37.5 90.5t-90.5 37.5zM832 64
q0 -27 -18.5 -45.5t-45.5 -18.5h-128q-27 0 -45.5 18.5t-18.5 45.5v128q0 27 18.5 45.5t45.5 18.5h128q27 0 45.5 -18.5t18.5 -45.5v-128z" />
    <glyph glyph-name="sangediandian" unicode="&#xe644;" 
d="M841 501q-47 0 -80 -32.5t-33 -78.5t33 -78.5t80 -32.5t80.5 32.5t33.5 78.5t-33.5 78.5t-80.5 32.5zM501 501q-47 0 -80.5 -32.5t-33.5 -78.5t33.5 -78.5t80.5 -32.5t80 32.5t33 78.5t-33 78.5t-80 32.5zM183 501q-47 0 -80.5 -32.5t-33.5 -78.5t33.5 -78.5t80.5 -32.5
t80 32.5t33 78.5t-33 78.5t-80 32.5z" />
    <glyph glyph-name="feedback" unicode="&#xe61f;" 
d="M649 443q-18 0 -31 -13t-13 -31t13 -31t31 -13t30.5 13t12.5 31t-12.5 31t-30.5 13zM509 442q-18 0 -30.5 -12.5t-12.5 -31t12.5 -31t30.5 -12.5t31 12.5t13 31t-13 31t-31 12.5zM373 442q-18 0 -30.5 -12.5t-12.5 -31t12.5 -31t30.5 -12.5t30.5 12.5t12.5 31t-12.5 31
t-30.5 12.5zM512.5 872q-99.5 0 -190 -39t-156 -104.5t-104.5 -156t-39 -190t39 -190.5t104.5 -156.5t156 -104t190 -38.5t190.5 38.5t156.5 104t104 156.5t38.5 190.5t-38.5 190t-104 156t-156.5 104.5t-190.5 39zM691 206h-45l7 -106l-141 106h-178q-29 0 -49.5 15.5
t-20.5 38.5v269q0 22 20.5 37.5t49.5 15.5h357q29 0 50 -15.5t21 -37.5v-269q0 -23 -21 -38.5t-50 -15.5z" />
    <glyph glyph-name="fukuan" unicode="&#xe646;" 
d="M256 610l346 162l91 -117h-22l-43 59q-5 7 -15 8.5t-17 -3.5q-8 -6 -9.5 -15.5t4.5 -17.5l50 -68q7 -10 18 -10h82q14 0 20.5 13t-2.5 25l-132 169q-11 15 -28 7l-363 -169q-9 -4 -12 -13.5t1 -17.5q4 -9 13 -12.5t18 0.5zM883 349q10 0 16.5 7t6.5 17v52q0 64 -41 110
q-43 48 -106 48h-489q-63 0 -108 -48q-44 -47 -44 -110v-309q0 -64 44.5 -108.5t107.5 -44.5h489q63 0 106 45q41 44 41 108v55q0 10 -7 16.5t-17 6.5v0q-23 0 -208 1h-11h-4q-5 2 -9 16q-9 25 -9 63q0 22 3.5 40.5t6.5 26t5 8.5h227v0zM605 349q-11 -31 -11 -75
q0 -45 11 -78q17 -47 52 -47h17q131 -2 186 -2v-31q0 -45 -29 -75.5t-72 -30.5h-489q-44 0 -75 31t-31 75v309q0 45 31.5 78t74.5 33h489q42 0 71.5 -32.5t29.5 -78.5v-29h-204q-34 0 -51 -47zM883 338q-10 0 -16.5 -5.5t-6.5 -12.5v-94q0 -7 6.5 -13t16.5 -6t16.5 6t6.5 13
v94q0 7 -6.5 12.5t-16.5 5.5zM683 272.5q0 19.5 14 33.5t33 14t33 -14t14 -33.5t-14 -33t-33 -13.5t-33 13.5t-14 33z" />
    <glyph glyph-name="jiantoushang" unicode="&#xe621;" 
d="M714 787l-193 -192l26 -25l167 166l166 -166l26 25z" />
    <glyph glyph-name="dizhi" unicode="&#xe648;" horiz-adv-x="1061" 
d="M1043 33q0 -38 -44.5 -69t-119 -50.5t-166.5 -30t-190.5 -10.5t-191 10.5t-166.5 30t-119 50.5t-45 69q0 27 22.5 50.5t54 38.5t74 27.5t74.5 18.5t64 11q10 1 17.5 -5t9 -15.5t-4.5 -17.5t-15 -9q-52 -7 -95 -17.5t-71 -21.5t-47 -22t-27 -20.5t-8 -17.5q0 -24 56 -49.5
t168.5 -44.5t249 -19t249 19t168.5 44.5t56 49.5q0 8 -8 17.5t-27.5 21t-47.5 22t-71.5 21t-95.5 17.5q-10 2 -16 9.5t-4.5 17.5t9.5 15.5t17 4.5q33 -5 65 -11t75 -18.5t74.5 -27.5t54 -38.5t22.5 -50.5v0zM422 594q0 42 29.5 71t71 29t70.5 -29t29 -70.5t-29 -70.5
t-70.5 -29t-71 29t-29.5 70v0zM670 594q0 61 -43.5 104.5t-104 43.5t-104 -43.5t-43.5 -104t43.5 -104t104 -43.5t104 43.5t43.5 103.5v0zM522 848q109 0 186.5 -77t77.5 -186q0 -57 -22.5 -123t-52.5 -118.5t-71 -107.5t-67 -85t-51 -56q-25 26 -51 55t-66.5 83.5
t-70.5 107t-52.5 119t-22.5 125.5q0 109 77 186t186 77v0zM506 45l17 -16l16 16q14 14 36 36.5t71.5 84.5t87.5 122.5t68.5 142.5t30.5 154q0 128 -91 219t-219.5 91t-219.5 -91t-91 -219q0 -74 30.5 -156.5t68.5 -143t87.5 -121.5t71.5 -83.5t36 -35.5v0z" />
    <glyph glyph-name="xiangqing-copy" unicode="&#xe601;" 
d="M993 94l-136 88q12 35 12 72q0 90 -63 153.5t-152 63.5t-152.5 -63.5t-63.5 -153t63.5 -153.5t152.5 -64q51 0 96 23.5t76 63.5l131 -86q8 -5 18 -5q18 0 27 15q8 11 5 24.5t-14 21.5zM654 104q-62 0 -106 44t-44 106t44 106.5t106 44.5t106 -44.5t44 -106.5t-44 -106
t-106 -44zM762 -1v0q0 -25 -18 -43t-42 -18h-559q-25 0 -42.5 18t-17.5 43v754q0 25 17.5 42.5t42.5 17.5h559q24 0 42 -17.5t18 -42.5v-262q36 -17 65 -44v306q0 52 -36.5 89.5t-88.5 37.5h-559q-52 0 -89 -37.5t-37 -89.5v-754q0 -52 37 -89.5t89 -37.5h559q52 0 89 37.5
t37 89.5v62q-30 -27 -66 -44v-18v0zM612 511h-421q-14 0 -23.5 -9.5t-9.5 -23t9.5 -23.5t23.5 -10h287q57 54 134 66zM687 645q0 14 -10 23.5t-23 9.5h-463q-14 0 -23.5 -9.5t-9.5 -23.5t9.5 -23.5t23.5 -9.5h463q13 0 23 9.5t10 23.5zM158 311.5q0 -13.5 9.5 -23t23.5 -9.5
h205q3 34 15 66h-220q-14 0 -23.5 -10t-9.5 -23.5z" />
    <glyph glyph-name="star-5-cornered" unicode="&#xe675;" 
d="M1014 514.5q-8 24.5 -28 41t-46 20.5l-241 38l-105 223q-10 25 -32.5 39.5t-49.5 14.5t-49.5 -14.5t-32.5 -39.5l-105 -223l-241 -35q-25 -4 -44.5 -20.5t-29.5 -41.5q-16 -54 21 -95l176 -181l-41 -251q-3 -27 7.5 -52t31.5 -40.5t47.5 -17t49.5 11.5l210 116l210 -116
q17 -10 43 -10q29 0 54 18q21 16 31.5 41t7.5 51l-41 251l176 182q17 15 23 40t-2 49.5zM489 453q-51 0 -79 -28q-34 -33 -34 -87q0 -10 -6.5 -16.5t-16.5 -6.5v0q-9 0 -16 6.5t-7 16.5q0 9 1.5 22t13 44t31.5 52q44 43 116 43v0q9 0 16 -6.5t7 -16.5q-2 -10 -9.5 -16.5
t-16.5 -6.5z" />
    <glyph glyph-name="wujiaoxing1" unicode="&#xe669;" 
d="M956.5 476.5q-8.5 26.5 -35.5 30.5l-255 44l-114 230q-12 25 -40 25t-40 -25l-114 -230l-255 -46q-28 -4 -36.5 -30.5t11.5 -45.5l184 -171l-48 -247q-4 -28 18 -44q13 -9 26.5 -8.5t20.5 4.5l233 114l231 -114q4 -2 11.5 -3.5t18 -0.5t17.5 8q23 16 18 44l-47 247
l185 172q19 20 10.5 46.5z" />
    <glyph glyph-name="wodedingdan" unicode="&#xe68e;" 
d="M555 245h-150q-9 0 -15 -5.5t-6 -15.5t6 -15.5t15 -5.5h150q9 0 15 5.5t6 15.5t-6 15.5t-15 5.5zM619 352h-214q-9 0 -15 -6t-6 -15.5t6 -15.5t15 -6h214q9 0 15 6t6 15.5t-6 15.5t-15 6zM512 896q-140 0 -257.5 -68.5t-186 -186t-68.5 -257.5t68.5 -257.5t186 -186
t257.5 -68.5t257.5 68.5t186 186t68.5 257.5t-68.5 257.5t-186 186t-257.5 68.5zM448 608h128q10 0 15.5 -6t5.5 -15.5t-5.5 -15.5t-15.5 -6h-128q-10 0 -15.5 6t-5.5 15.5t5.5 15.5t15.5 6zM725 160q0 -18 -12.5 -30.5t-29.5 -12.5h-342q-17 0 -29.5 12.5t-12.5 30.5v384
q0 18 12.5 30.5t29.5 12.5h43q0 -18 12.5 -30.5t30.5 -12.5h170q18 0 30.5 12.5t12.5 30.5h43q17 0 29.5 -12.5t12.5 -30.5v-384zM619 459h-214q-9 0 -15 -6t-6 -15.5t6 -15.5t15 -6h214q9 0 15 6t6 15.5t-6 15.5t-15 6z" />
    <glyph glyph-name="shujuchaxun" unicode="&#xe6e6;" 
d="M402 494q0 -84 51 -151v-243h-161v638q0 13 9.5 22.5t22.5 9.5h97q13 0 22.5 -9.5t9.5 -22.5v-94q-51 -66 -51 -150zM99 547q0 13 9.5 22t22.5 9h97q13 0 22.5 -9t9.5 -22v-447h-161v447zM839 4h-836v766h32v-734l804 -1v-31zM678 164q0 13 9.5 22.5t23.5 9.5h96
q13 0 22.5 -9.5t9.5 -22.5v-64h-161v64zM485 100v209q69 -61 161 -62v-147h-161v0zM1008 225q16 -16 16 -39t-16.5 -39.5t-39.5 -16.5t-39 16v0l-163 163q-52 -31 -113 -31q-92 0 -157 65t-65 157t65 157t157 65t157.5 -65t65.5 -157q0 -61 -31 -113l163 -162v0zM653 666
q-69 0 -118 -48.5t-49 -117.5t49 -118t118 -49t118 49t49 118t-49 117.5t-118 48.5z" />
    <glyph glyph-name="shourumingxi" unicode="&#xe620;" 
d="M512 -128q-139 0 -257 68.5t-186.5 186.5t-68.5 257t68.5 257t186.5 186.5t257 68.5t257 -68.5t186.5 -186.5t68.5 -257t-68.5 -257t-186.5 -186.5t-257 -68.5zM740 626q0 28 -15.5 46.5t-41.5 18.5h-400q-27 0 -45.5 -19t-18.5 -46v-453q0 -26 18 -41.5t46 -15.5h209
q-19 29 -26 46l-2 6h-167q-4 0 -15 10.5t-11 15.5v417q7 19 26 28q352 2 364 0q8 -1 17.5 -11.5t9.5 -16.5v-174l7 -2q16 -4 45 -18v209zM421 452q0 5 6 5q28 0 51 1q15 0 14 17q0 9 -6 15.5t-15 6.5h-45q-5 0 -5 1q1 13 3 16q9 9 49 52q4 5 6 8q4 7 1.5 14t-11.5 9
q-9 3 -19 -6l-45 -45q-3 -3 -6 1q-7 8 -20.5 23t-17.5 19q-7 8 -17 10q-13 3 -16 -10q-4 -11 7 -23q33 -38 41 -47q8 -8 7 -19q0 -4 -4 -4h-24h-24t-12 -6q-3 -4 -5 -10q-3 -10 1.5 -18t14.5 -8q9 0 25 1.5t24 1.5q4 0 4 -3v-36q0 -3 -4 -3h-26h-25q-8 0 -13 -5t-5 -13
t5 -13.5t13 -5.5h50q4 0 4 -4q0 -10 1 -18q1 -18 20 -18q7 0 12.5 6t5.5 14v15q-1 3 0 4t5 1h24.5h24.5t13 7q7 9 3 20q-4 10 -16 10h-6h-44q-4 0 -4 5v32zM310 266q0 -8 6.5 -13.5t15.5 -5.5h74q9 0 15 5.5t6 13.5t-6 14t-15 6h-74q-9 0 -15.5 -6t-6.5 -14zM532 528
q0 -8 6 -14t15 -6h74q9 0 15.5 6t6.5 14t-6.5 13.5t-15.5 5.5h-74q-9 0 -15 -5.5t-6 -13.5zM636 417q-70 0 -120 -50t-50 -120t50 -120t120 -50t119.5 50t49.5 120t-49.5 120t-119.5 50zM635.5 129q-48.5 0 -83 34.5t-34.5 83.5t34.5 83.5t83 34.5t83 -34.5t34.5 -83.5
t-34.5 -83.5t-83 -34.5zM692 261v0v0v0zM701 260h-52v52h-26v-52h-52v-26h52v-53h26v53h52v26z" />
    <glyph glyph-name="iconshoucang" unicode="&#xe77a;" horiz-adv-x="1040" 
d="M768 317l256 193h-369l-143 331l-127 -294v0l-74 -270v0l-3 -10l-3 -11h-1l-103 -325l253 163l314 223v0v0zM336 510h-336l277 -208l59 208v0zM540 112l265 -181l-82 308l-183 -127v0zM540 112z" />
    <glyph glyph-name="fenlei1" unicode="&#xe602;" 
d="M106 9q-15 0 -26 10.5t-11 25t11 25t26 10.5h39q15 0 26 -10.5t11 -25.5t-11 -25t-26 -10h-39v0zM293 689v0q-15 0 -26 10t-11 25t11 25t26 10h625q15 0 26 -10t11 -25t-11 -25t-26 -10h-625v0zM106 689v0q-15 0 -26 10t-11 25t11 25t26 10h39q15 0 26 -10t11 -25
t-11 -25t-26 -10h-39v0zM293 462v0q-15 0 -26 10.5t-11 24.5q0 15 11 25.5t26 10.5h625q15 0 26 -10.5t11 -25.5q0 -14 -11 -24.5t-26 -10.5h-625v0zM106 462v0q-15 0 -26 10.5t-11 24.5q0 15 11 25.5t26 10.5h39q15 0 26 -10.5t11 -25.5q0 -14 -11 -24.5t-26 -10.5h-39v0z
M293 235v0q-15 0 -26 10.5t-11 25t11 25t26 10.5h625q15 0 26 -10.5t11 -25t-11 -25t-26 -10.5h-625v0zM106 235v0q-15 0 -26 10.5t-11 25t11 25t26 10.5h39q15 0 26 -10.5t11 -25t-11 -25t-26 -10.5h-39v0zM293 9v0q-15 0 -26 10.5t-11 25t11 25t26 10.5h625q15 0 26 -10.5
t11 -25t-11 -25t-26 -10.5h-625v0z" />
    <glyph glyph-name="shuju" unicode="&#xe62e;" 
d="M384 832q0 27 19 45.5t46 18.5h126q27 0 46 -18.5t19 -45.5v-896q0 -27 -19 -45.5t-46 -18.5h-126q-27 0 -46 18.5t-19 45.5v896zM768 320q0 27 19 45.5t46 18.5h126q27 0 46 -19t19 -45v-384q0 -27 -19 -45.5t-46 -18.5h-126q-27 0 -46 19t-19 45v384zM0 576
q0 27 19 45.5t46 18.5h126q27 0 46 -19t19 -45v-640q0 -27 -19 -45.5t-46 -18.5h-126q-27 0 -46 19t-19 45v640z" />
    <glyph glyph-name="xiangxiajiantou" unicode="&#xe65b;" 
d="M330 459l183 -183l182 183l-30 33l-152 -153l-153 153z" />
    <glyph glyph-name="wodedingdan1" unicode="&#xe605;" 
d="M439 298l6 -21l206 30l-6 22zM424 359l9 -21l265 36l-8 21zM576 443l-167 -25l5 -18l167 24zM512 896q-104 0 -198 -40.5t-162.5 -108.5t-108.5 -162.5t-40 -198t40 -198t108.5 -162.5t162.5 -108.5t198 -40.5t198 40.5t162.5 108.5t108.5 162.5t40 198t-40 198
t-108.5 162.5t-162.5 108.5t-198 40.5zM534 667q16 0 27.5 -12t11.5 -29q0 -16 -11.5 -28t-27.5 -12t-27.5 12t-11.5 28q0 17 11.5 29t27.5 12zM496 614q-1 -6 -1 -10q0 -17 12 -29t29 -12q16 0 28 12t12 29q0 5 -2 12q21 -18 21 -46q0 -25 -17 -42.5t-41.5 -17.5
t-41.5 17.5t-17 42.5q-1 26 18 44zM259 226l56 214q30 -236 38 -252zM642 102l-206 71l211 22zM394 190q-55 243 -59 365l126 20q-1 -8 -1 -17q0 -33 22.5 -56t54 -23t54 23t22.5 56q0 20 -10 39l103 15l3 -18t8.5 -46t12.5 -66t14 -71.5t15.5 -69t15 -53t13.5 -28.5z" />
    <glyph glyph-name="shuju1" unicode="&#xe615;" horiz-adv-x="1098" 
d="M70 -66v350q0 36 26 61.5t62 25.5h87q36 0 62 -26t26 -61v-350h-263v0v0v0zM446 870q-26 -26 -26 -61v-875h263v875q0 35 -26 61t-62 26h-87q-36 0 -62 -26v0v0v0zM796 608q-26 -26 -26 -62v-612h263v612q0 36 -26 62t-62 26h-87q-36 0 -62 -26v0z" />
    <glyph glyph-name="lishi" unicode="&#xe666;" horiz-adv-x="1025" 
d="M512 723q-19 0 -32 -11.5t-13 -26.5v-301q0 -7 3 -15t3 -11l173 -211q10 -19 32 -19q19 0 26 7q14 9 15 26t-9 31l-153 205v288q-1 15 -14 26.5t-31 11.5v0v0zM512 723zM151 747q119 119 288 144q102 14 200 -11t180 -86.5t133.5 -148.5t66.5 -188q15 -103 -12 -202.5
t-85 -177.5t-146 -131.5t-191 -68.5q-88 -12 -175.5 5.5t-162.5 63.5q-13 8 -17 23t4 27.5t23 16.5t28 -4q134 -82 289 -59q118 16 210 89t135.5 181.5t26.5 225.5q-12 87 -56.5 161.5t-114.5 127.5t-154 74.5t-171 8.5q-118 -17 -210 -89.5t-135.5 -181t-26.5 -225.5
q13 -95 65 -175q8 -12 4.5 -27t-16 -23t-27.5 -5t-23 16q-60 93 -76 203q-14 102 11 200t86 180q22 29 49 56v0v0v0zM151 747z" />
    <glyph glyph-name="jilu" unicode="&#xe711;" 
d="M844 819h-667q-26 0 -44 -18t-18 -44v-743q0 -25 18 -43.5t44 -18.5h667q26 0 44 18.5t18 43.5v743q1 26 -17.5 44t-44.5 18zM609 344h-378q-6 0 -10 4t-4 10t4 10t10 4h378q6 0 10 -4t4 -10t-4 -10t-10 -4zM789 484h-558q-6 0 -10 4t-4 10t4 10t10 4h558q6 0 10 -4
t4 -10q0 -5 -4 -9.5t-10 -4.5zM789 625h-558q-6 0 -10 4t-4 10t4 10t10 4h558q6 0 10 -4t4 -10t-4 -10t-10 -4z" />
    <glyph glyph-name="dengdaiziti" unicode="&#xe617;" horiz-adv-x="1025" 
d="M768 -59q-90 -52 -192.5 -64.5t-196 12.5t-176 87t-134.5 152t-64.5 192.5t12.5 196t87 176t152 134.5t192.5 64.5t196 -12.5t176 -87t134.5 -152t64.5 -192.5t-12.5 -196t-87 -176t-152 -134.5zM271.5 801q-84.5 -49 -143 -126.5t-82 -165.5t-12 -184.5t60.5 -181
t126.5 -143t165.5 -82t184.5 -12t181 60.5t143 126.5t82 165.5t12 184.5t-60.5 181t-126.5 143t-165.5 82t-184.5 12t-181 -60.5zM858 536l42 25l6 -10l-42 -24l16 -29q15 6 31 15q12 7 25 15l3 -12q-9 -5 -22 -12q-38 -22 -57 -23q-15 0 -35 13q4 -24 0 -49l-12 3
q7 41 -11 77l11 4q5 -11 8 -22q23 -16 40 -15l8 2l-36 61l-51 -29l-5 10l111 64l5 -10l-49 -29zM744 626l83 48l38 -66l-83 -48zM787 575l63 36l-12 20l-62 -37zM771 603l62 36l-11 20l-63 -36zM755 520q7 11 13 20l6 -11q-10 -15 -13 -19l34 -60q9 -15 -6 -23l-18 -10l-8 8
q12 6 17 9q8 5 3 13l-30 52q-9 -12 -20 -23l-9 9q12 11 23 24l-27 47l-25 -14l-6 10l25 15l-22 38l10 6l22 -38l21 12l6 -10l-21 -12zM354 647q-73 -41 -113 -112.5t-40 -152.5l-11 -6q-1 85 41 160.5t118 119.5q79 44 164 42.5t158 -45.5l-10 -6q-70 41 -151 41.5
t-156 -41.5zM382 706l-39 -5l-20 -34l-18 36l-38 10l28 27l-3 40l35 -19l36 15l-7 -39zM258 336l6 -9l-39 -22q15 -6 26 -13l-7 -10q-14 9 -30 16l-13 -8q0 -13 -1 -25l-12 1q3 25 -3 48l11 4q2 -10 3 -16zM206 248l59 34l6 -10l-59 -34l12 -22l81 47l6 -10l-39 -22l12 -21
l31 17l5 -9l-30 -18l19 -33q8 -15 -7 -24l-29 -16l-8 8q20 11 28 16q8 4 4 12l-18 31l-111 -64l-6 9l112 64l-13 22l-123 -71l-5 9l81 47l-13 22l-59 -34l-6 9l60 34l-8 14l10 6zM169 243l-7 -8q-14 9 -30 15l-10 -6q0 -18 -3 -35h-12q6 30 0 60l11 3q2 -9 3 -16l52 30l6 -9
l-36 -20q15 -7 26 -14zM244 127l-5 -11q-18 8 -42 14l6 10q23 -6 41 -13zM310 306l-9 8q17 39 13 75l12 1q3 -42 -16 -84zM358 309l58 -99l-11 -6l-50 86q-4 -18 -12 -37l-9 8q18 46 13 87l12 1q2 -21 -1 -40zM462 272q-17 8 -43 16l5 10q28 -8 43 -16zM392 305l77 44l-9 16
l10 6l9 -16l24 14l6 -10l-24 -14l31 -53q10 -17 -8 -27l-27 -16l-8 9q14 7 26 14q11 6 5 17l-30 50l-76 -44zM485 408l6 -11l-116 -66l-6 10l53 30l-16 27l-45 -26l-6 10l45 26l-13 22l11 6l12 -22l45 26l6 -10l-45 -26l16 -27zM724 387l-10 -6l-8 13l-107 -62l7 -13l-10 -6
l-89 154l41 23q0 17 -4 31l12 5q3 -15 3 -29l77 44zM631 525l-108 -62l19 -33l108 62zM656 482l-108 -62l19 -32l107 62zM680 440l-107 -63l20 -35l107 63zM661 115q73 42 113 113.5t41 152.5l10 6q1 -85 -40.5 -160.5t-118.5 -119.5q-79 -44 -164 -42.5t-158 45.5l10 6
q70 -41 151 -41.5t156 40.5z" />
    <glyph glyph-name="1111114" unicode="&#xe60d;" 
d="M243 350h233q9 0 15 6t6 14.5t-6 15t-15 6.5h-233q-9 0 -15 -6.5t-6 -15t6 -14.5t15 -6zM427 280h-180q-9 0 -15 -6.5t-6 -15t6 -14.5t15 -6h180q8 0 14.5 6t6.5 14.5t-6.5 15t-14.5 6.5zM658 246q6 -6 17 -6h2q9 0 15 6l159 159q6 6 6 15.5t-5.5 15t-14.5 5.5t-16 -6
l-146 -146l-64 65q-6 5 -15 5t-16 -5q-5 -6 -5 -15.5t5 -15.5zM954 631l-57 100q-6 19 -21.5 31.5t-33.5 12.5h-622q-18 0 -33.5 -12.5t-21.5 -31.5l-57 -100q-2 -6 -2.5 -14.5t-1.5 -14.5v-6v-5v-12v-438q0 -45 32.5 -77.5t77.5 -32.5h632q45 0 77.5 32.5t32.5 77.5v438v0
v17q1 1 0 13t-2 22zM205 720q1 5 6 9t9 4h620q5 0 9.5 -4t5.5 -9l55 -97h-760zM920 141q0 -30 -21 -51t-51 -21h-634q-30 0 -51 21t-21 51v438h776v-438h2z" />
    <glyph glyph-name="xiyoujiantou" unicode="&#xe616;" 
d="M352 41q-10 0 -16.5 6.5t-6.5 16t6 16.5l304 304l-304 304q-6 7 -6 16.5t6.5 16t16.5 6.5t16 -6l321 -321q6 -6 6 -16t-6 -16l-321 -321q-6 -6 -16 -6z" />
    <glyph glyph-name="icon-yxj-express" unicode="&#xe667;" horiz-adv-x="1026" 
d="M691 147h-165q-11 0 -18.5 7.5t-7.5 18.5t7.5 18.5t18.5 7.5h140v435q0 11 -7.5 18t-18.5 7h-410q-10 0 -17.5 -7t-7.5 -18t-7.5 -18.5t-18.5 -7.5h-60q-11 0 -18.5 7.5t-7.5 18.5t7.5 18t18.5 7h39q8 23 27.5 37.5t44.5 14.5h409q32 0 54.5 -22.5t22.5 -54.5v-461
q1 -10 -6.5 -18t-18.5 -8zM347 147h-117q-31 0 -53.5 22.5t-22.5 54.5q0 11 7 18.5t18 7.5t18.5 -7.5t7.5 -18t7.5 -18t17.5 -7.5h117q10 0 17.5 -7.5t7.5 -18.5t-7.5 -18.5t-17.5 -7.5zM974 147h-36q-10 0 -17.5 7.5t-7.5 18.5t7.5 18.5t17.5 7.5h36v160l-98 147h-158v-307
h41q11 0 18.5 -7.5t7.5 -18.5t-7.5 -18.5t-18.5 -7.5h-66q-11 0 -18.5 7.5t-7.5 18.5v358q0 11 7.5 18.5t18.5 7.5h183q28 0 43 -22l98 -147q9 -14 9 -29v-160q0 -21 -15.5 -36.5t-36.5 -15.5zM437.5 57q-47.5 0 -81 34t-33.5 81.5t33.5 81.5t81 34t81.5 -34t34 -81.5
t-34 -81.5t-81.5 -34zM437.5 237q-26.5 0 -45 -19t-18.5 -45.5t18.5 -45t45 -18.5t45.5 18.5t19 45t-19 45.5t-45.5 19zM851 57q-48 0 -81.5 34t-33.5 81.5t33.5 81.5t81.5 34t81.5 -34t33.5 -81.5t-33.5 -81.5t-81.5 -34zM850.5 237q-26.5 0 -45 -19t-18.5 -45.5t18.5 -45
t45 -18.5t45.5 18.5t19 45t-19 45.5t-45.5 19zM261 517h-118q-10 0 -17.5 7.5t-7.5 18t7.5 18t17.5 7.5h118q11 0 18.5 -7.5t7.5 -18t-7.5 -18t-18.5 -7.5zM205 312h-118q-11 0 -18.5 7.5t-7.5 18.5t7.5 18.5t18.5 7.5h118q11 0 18 -7.5t7 -18.5t-7 -18.5t-18 -7.5zM374 425
h-348q-11 0 -18.5 7.5t-7.5 18t7.5 18t18.5 7.5h348q11 0 18 -7.5t7 -18t-7 -18t-18 -7.5zM947 415h-153q-11 0 -18.5 7.5t-7.5 18t7.5 18t18.5 7.5h153q11 0 18.5 -7.5t7.5 -18t-7.5 -18t-18.5 -7.5z" />
    <glyph glyph-name="qianbao" unicode="&#xe606;" 
d="M255 146h20v20h20v20h-40v-40zM255 266h20v20h20v21h-40v-41zM255 327h20v20h20v20h-40v-40zM255 206h20v20h20v20h-40v-40zM255 387h21l-1 20l20 -1v21h-40v-40zM512 834q-91 0 -174 -35.5t-142.5 -95.5t-95 -142.5t-35.5 -173.5t35.5 -174t95 -143t142.5 -95.5
t174 -35.5t174 35.5t142.5 95.5t95 143t35.5 174t-35.5 173.5t-95 142.5t-142.5 95.5t-174 35.5zM696 608q27 0 45 -20h-82l-10 20h47zM611 648l45 -99h-281zM757 166q0 -25 -18 -42.5t-43 -17.5h-421q-25 0 -42.5 17.5t-17.5 42.5v381q0 25 17.5 43t42.5 18h193l-47 -20
h-156q-13 0 -21.5 -9t-8.5 -21.5t8.5 -21t21.5 -8.5h492v-121h-201q-25 0 -42.5 -17.5t-17.5 -42.5v-40q0 -25 17.5 -43t42.5 -18h201v-80zM797 266h-241q-17 0 -28.5 12t-11.5 29v40q0 16 11.5 28t28.5 12h241v-121zM586 325zM556 325v0q0 -13 9 -21.5t21 -8.5t21 8.5
t9 21.5v0v0q0 12 -9 21t-21 9t-21 -9t-9 -21v0zM255 447h20v20h20v20h-40v-40z" />
    <glyph glyph-name="ic_sq_jkd" unicode="&#xe607;" horiz-adv-x="1309" 
d="M1310 86q0 -29 -21 -50t-51 -21h-23q0 -59 -42 -101t-101.5 -42t-101 42t-41.5 101h-453q0 -59 -41.5 -101t-101 -42t-101 42t-41.5 101h-24q-30 0 -51 21t-21 50v84h72v-48v0q0 -15 10.5 -25.5t24.5 -10.5h8q19 33 51.5 52.5t71.5 19.5t72 -19.5t52 -52.5h388v453v238
q0 16 -10.5 32t-24.5 16h-608q-14 0 -24.5 -16t-10.5 -32v-24h-72v72q0 29 21 50t51 21h678v0q30 0 51 -21t21 -50v-215h226h3h3q18 3 31 -10l1 -1q14 -8 22 -22l73 -73q14 -9 23 -22v-1q13 -12 10 -30l1 -7v-358zM333.5 86q-29.5 0 -50.5 -21t-21 -50.5t21 -50.5t50.5 -21
t50.5 21t21 50.5t-21 50.5t-50.5 21zM1071.5 -57q29.5 0 50.5 21t21 50.5t-21 50.5t-50.5 21t-50.5 -21t-21 -50.5t21 -50.5t50.5 -21zM1140 539h-223v-453h31q19 33 52 52.5t72 19.5t71.5 -19.5t51.5 -52.5h43v334h-119q-10 0 -17 7t-7 16.5t7 16.5t17 7h92zM214 634v0
q0 -10 -7 -17t-16 -7h-120q-9 0 -16 7t-7 17t7 17t16 7h120q9 0 16 -7t7 -17zM143 491q-10 0 -17 7t-7 17t7 17t17 7h155q10 0 16.5 -7t6.5 -17t-6.5 -17t-16.5 -7h-155zM441 396v0q0 -10 -7 -17t-17 -7h-393q-10 0 -17 7t-7 17t7 17t17 7h393v0q10 0 17 -7t7 -17zM107 301
h107q10 0 17 -7t7 -17t-7 -17t-17 -7h-107q-10 0 -17 7t-7 17t7 17t17 7z" />
    <glyph glyph-name="paihangbang" unicode="&#xe62b;" 
d="M553 832h-82q-33 0 -57 -24t-24 -57v-815h244v815q0 33 -24 57t-57 24zM879 588h-82q-34 0 -57.5 -24t-23.5 -58v-570h244v570q0 34 -24 58t-57 24zM308 -64h-244v326q0 33 24 57t57 24h82q34 0 57.5 -24t23.5 -57v-326z" />
  </font>
</defs>
</svg>
